<svg width="100" height="100" viewBox="0 0 100 100" fill="none" xmlns="http://www.w3.org/2000/svg">
<rect x="0.841309" y="0.146118" width="99" height="99" rx="49.5" fill="#6366F0" fill-opacity="0.1"/>
<rect x="9.84131" y="9.14612" width="81" height="81" rx="40.5" fill="white"/>
<rect x="10.3413" y="9.64612" width="80" height="80" rx="40" stroke="#6366F0" stroke-opacity="0.5"/>
<path d="M69.8413 37.8384C69.8413 35.7983 69.0309 33.8417 67.5883 32.3991C66.1457 30.9566 64.1891 30.1461 62.149 30.1461H40.6105C38.5704 30.1461 36.6138 30.9566 35.1713 32.3991C33.7287 33.8417 32.9182 35.7983 32.9182 37.8384V41.7092C35.1937 40.1848 37.8717 39.3729 40.6105 39.3769C43.909 39.3769 46.9367 40.5307 49.3152 42.4538H66.7644V59.3769C66.7644 60.601 66.2781 61.7749 65.4126 62.6405C64.547 63.506 63.3731 63.9923 62.149 63.9923H57.9059L59.2598 65.3461C59.7613 65.8477 60.1244 66.4384 60.349 67.0692H62.149C64.1891 67.0692 66.1457 66.2588 67.5883 64.8162C69.0309 63.3736 69.8413 61.417 69.8413 59.3769V37.8384ZM40.6105 39.3769H35.9952V37.8384C35.9952 36.6143 36.4814 35.4404 37.347 34.5749C38.2125 33.7093 39.3865 33.223 40.6105 33.223H62.149C63.3731 33.223 64.547 33.7093 65.4126 34.5749C66.2781 35.4404 66.7644 36.6143 66.7644 37.8384V39.3769H40.6105ZM47.0598 61.8477C44.8793 63.4782 42.1621 64.2222 39.4551 63.9301C36.7482 63.638 34.2523 62.3314 32.4698 60.2733C30.6874 58.2151 29.7507 55.5582 29.8482 52.8373C29.9458 50.1163 31.0703 47.5333 32.9955 45.6081C34.9208 43.6828 37.5038 42.5583 40.2248 42.4607C42.9457 42.3632 45.6026 43.2999 47.6608 45.0824C49.7189 46.8648 51.0255 49.3607 51.3176 52.0676C51.6097 54.7746 50.8657 57.4918 49.2352 59.6723L57.0813 67.5184C57.3702 67.8069 57.5326 68.1983 57.5329 68.6066C57.5332 69.0148 57.3713 69.4065 57.0828 69.6954C56.7944 69.9842 56.403 70.1467 55.9947 70.147C55.5865 70.1473 55.1948 69.9854 54.9059 69.6969L47.0598 61.8477ZM48.3028 53.223C48.3028 51.1829 47.4924 49.2263 46.0498 47.7838C44.6072 46.3412 42.6507 45.5307 40.6105 45.5307C38.5704 45.5307 36.6138 46.3412 35.1713 47.7838C33.7287 49.2263 32.9182 51.1829 32.9182 53.223C32.9182 55.2632 33.7287 57.2197 35.1713 58.6623C36.6138 60.1049 38.5704 60.9153 40.6105 60.9153C42.6507 60.9153 44.6072 60.1049 46.0498 58.6623C47.4924 57.2197 48.3028 55.2632 48.3028 53.223Z" fill="#6B7280"/>
</svg>
