<svg width="100" height="100" viewBox="0 0 100 100" fill="none" xmlns="http://www.w3.org/2000/svg">
<rect x="0.841309" y="0.146118" width="99" height="99" rx="49.5" fill="#6366F0" fill-opacity="0.1"/>
<rect x="9.84131" y="9.14612" width="81" height="81" rx="40.5" fill="white"/>
<rect x="10.3413" y="9.64612" width="80" height="80" rx="40" stroke="#6366F0" stroke-opacity="0.5"/>
<g clip-path="url(#clip0_587_5080)">
<path d="M63.6192 49.7017C61.6192 47.5906 58.9526 46.1461 56.1748 45.5906C54.9526 45.2572 53.7303 45.035 52.5081 44.9239C55.6192 41.2572 55.0637 35.7017 51.397 32.5906C47.7303 29.4795 42.1748 30.035 39.0637 33.7017C35.9526 37.3683 36.5081 42.9239 40.1748 46.035C40.8414 46.5906 41.5081 47.035 42.1748 47.2572V49.7017L40.397 48.035C38.8414 46.4795 36.2859 46.4795 34.6192 48.035C33.0637 49.5906 32.9526 52.035 34.5081 53.5906L39.6192 59.5906C39.8414 61.1461 40.397 62.5906 41.1748 63.9239C41.7303 64.9239 42.5081 65.9239 43.2859 66.7017V68.8128C43.2859 69.4795 43.7303 69.9239 44.397 69.9239H59.5081C60.0637 69.9239 60.6192 69.3683 60.6192 68.8128V65.9239C62.7303 63.3683 63.8414 60.1461 63.8414 56.9239V50.4795C63.9526 50.035 63.8414 49.8128 63.6192 49.7017ZM39.1748 39.2572C39.1748 35.5906 42.1748 32.7017 45.8414 32.8128C49.5081 32.8128 52.397 35.8128 52.2859 39.4795C52.2859 41.4795 51.397 43.2572 49.8414 44.4795V38.9239C49.7847 37.961 49.3618 37.0562 48.6594 36.3951C47.9569 35.734 47.0283 35.3667 46.0637 35.3683C44.0637 35.2572 42.2859 36.9239 42.2859 38.9239V44.7017C40.397 43.5906 39.2859 41.4795 39.1748 39.2572ZM61.7303 56.8128C61.8414 59.7017 60.8414 62.4795 58.9526 64.7017C58.7303 64.9239 58.5081 65.1461 58.5081 65.4795V67.8128H45.6192V66.2572C45.6192 65.9239 45.397 65.5906 45.1748 65.3683C44.397 64.7017 43.7303 63.9239 43.1748 62.9239C42.5081 61.8128 42.0637 60.4795 41.8414 59.1461C41.8414 58.9239 41.7303 58.7017 41.6192 58.4795L36.2859 52.1461C35.9526 51.8128 35.7303 51.3683 35.7303 50.8128C35.7303 50.3683 35.9526 49.8128 36.2859 49.4795C37.0637 48.8128 38.1748 48.8128 38.9526 49.4795L42.1748 52.7017V56.035L44.2859 54.9239V38.9239C44.397 38.1461 45.0637 37.4795 45.9526 37.5906C46.7303 37.5906 47.5081 38.1461 47.5081 38.9239V51.7017L49.7303 52.1461V47.035C49.8414 46.9239 49.9526 46.9239 50.0637 46.8128C50.8414 46.8128 51.6192 46.9239 52.397 47.035V52.7017L54.1748 53.035V47.2572L55.5081 47.5906C56.0637 47.7017 56.6192 47.9239 57.1748 48.1461V53.7017L58.9526 54.035V48.9239C59.9526 49.3683 60.8414 50.035 61.6192 50.8128L61.7303 56.8128Z" fill="#6B7280"/>
</g>
<defs>
<clipPath id="clip0_587_5080">
<rect width="40" height="40" fill="white" transform="translate(29.8413 30.1461)"/>
</clipPath>
</defs>
</svg>
