<svg width="16" height="17" viewBox="0 0 16 17" fill="none" xmlns="http://www.w3.org/2000/svg">
<g clip-path="url(#clip0_648_6092)">
<path d="M3.00033 11.1628C2.00033 12.0028 1.66699 14.4961 1.66699 14.4961C1.66699 14.4961 4.16033 14.1628 5.00033 13.1628C5.47366 12.6028 5.46699 11.7428 4.94033 11.2228C4.6812 10.9755 4.33985 10.8326 3.98181 10.8215C3.62376 10.8104 3.27424 10.932 3.00033 11.1628ZM8.00033 10.1628L6.00033 8.1628C6.35509 7.24242 6.80179 6.36018 7.33366 5.52947C8.11045 4.28746 9.19207 3.26484 10.4757 2.55886C11.7592 1.85289 13.2021 1.48705 14.667 1.49614C14.667 3.30947 14.147 6.49614 10.667 8.82947C9.82492 9.36195 8.93156 9.80863 8.00033 10.1628Z" stroke="#F7F9FB" stroke-linecap="round" stroke-linejoin="round"/>
<path d="M6.00033 8.16281H2.66699C2.66699 8.16281 3.03366 6.14281 4.00033 5.49615C5.08033 4.77615 7.33366 5.49615 7.33366 5.49615M8.00033 10.1628V13.4961C8.00033 13.4961 10.0203 13.1295 10.667 12.1628C11.387 11.0828 10.667 8.82948 10.667 8.82948" stroke="#F7F9FB" stroke-linecap="round" stroke-linejoin="round"/>
</g>
<defs>
<clipPath id="clip0_648_6092">
<rect width="16" height="16" fill="white" transform="translate(0 0.162842)"/>
</clipPath>
</defs>
</svg>
