<svg width="32" height="32" viewBox="0 0 32 32" fill="none" xmlns="http://www.w3.org/2000/svg">
<path d="M8 14.3333C8 13.9394 8.0776 13.5493 8.22836 13.1853C8.37913 12.8213 8.6001 12.4906 8.87868 12.212C9.15726 11.9334 9.48797 11.7125 9.85195 11.5617C10.2159 11.4109 10.606 11.3333 11 11.3333C11.394 11.3333 11.7841 11.4109 12.1481 11.5617C12.512 11.7125 12.8427 11.9334 13.1213 12.212C13.3999 12.4906 13.6209 12.8213 13.7716 13.1853C13.9224 13.5493 14 13.9394 14 14.3333C14 15.129 13.6839 15.892 13.1213 16.4547C12.5587 17.0173 11.7956 17.3333 11 17.3333C10.2044 17.3333 9.44129 17.0173 8.87868 16.4547C8.31607 15.892 8 15.129 8 14.3333ZM11 13.3333C10.7348 13.3333 10.4804 13.4387 10.2929 13.6262C10.1054 13.8138 10 14.0681 10 14.3333C10 14.5985 10.1054 14.8529 10.2929 15.0404C10.4804 15.228 10.7348 15.3333 11 15.3333C11.2652 15.3333 11.5196 15.228 11.7071 15.0404C11.8946 14.8529 12 14.5985 12 14.3333C12 14.0681 11.8946 13.8138 11.7071 13.6262C11.5196 13.4387 11.2652 13.3333 11 13.3333ZM11 18.6667C10.2044 18.6667 9.44129 18.9827 8.87868 19.5453C8.31607 20.108 8 20.871 8 21.6667C8 22.4623 8.31607 23.2254 8.87868 23.788C9.44129 24.3506 10.2044 24.6667 11 24.6667C11.7956 24.6667 12.5587 24.3506 13.1213 23.788C13.6839 23.2254 14 22.4623 14 21.6667C14 20.871 13.6839 20.108 13.1213 19.5453C12.5587 18.9827 11.7956 18.6667 11 18.6667ZM10 21.6667C10 21.4015 10.1054 21.1471 10.2929 20.9596C10.4804 20.772 10.7348 20.6667 11 20.6667C11.2652 20.6667 11.5196 20.772 11.7071 20.9596C11.8946 21.1471 12 21.4015 12 21.6667C12 21.9319 11.8946 22.1862 11.7071 22.3738C11.5196 22.5613 11.2652 22.6667 11 22.6667C10.7348 22.6667 10.4804 22.5613 10.2929 22.3738C10.1054 22.1862 10 21.9319 10 21.6667ZM16 14.3333C16 14.0681 16.1054 13.8138 16.2929 13.6262C16.4804 13.4387 16.7348 13.3333 17 13.3333H23C23.2652 13.3333 23.5196 13.4387 23.7071 13.6262C23.8946 13.8138 24 14.0681 24 14.3333C24 14.5985 23.8946 14.8529 23.7071 15.0404C23.5196 15.228 23.2652 15.3333 23 15.3333H17C16.7348 15.3333 16.4804 15.228 16.2929 15.0404C16.1054 14.8529 16 14.5985 16 14.3333ZM17 20.6667C16.7348 20.6667 16.4804 20.772 16.2929 20.9596C16.1054 21.1471 16 21.4015 16 21.6667C16 21.9319 16.1054 22.1862 16.2929 22.3738C16.4804 22.5613 16.7348 22.6667 17 22.6667H23C23.2652 22.6667 23.5196 22.5613 23.7071 22.3738C23.8946 22.1862 24 21.9319 24 21.6667C24 21.4015 23.8946 21.1471 23.7071 20.9596C23.5196 20.772 23.2652 20.6667 23 20.6667H17ZM8 9C8 8.73478 8.10536 8.48043 8.29289 8.29289C8.48043 8.10536 8.73478 8 9 8H23C23.2652 8 23.5196 8.10536 23.7071 8.29289C23.8946 8.48043 24 8.73478 24 9C24 9.26522 23.8946 9.51957 23.7071 9.70711C23.5196 9.89464 23.2652 10 23 10H9C8.73478 10 8.48043 9.89464 8.29289 9.70711C8.10536 9.51957 8 9.26522 8 9ZM8.33333 4C7.18406 4 6.08186 4.45655 5.2692 5.2692C4.45655 6.08186 4 7.18406 4 8.33333V23.6667C4 24.8159 4.45655 25.9181 5.2692 26.7308C6.08186 27.5435 7.18406 28 8.33333 28H23.6667C24.8159 28 25.9181 27.5435 26.7308 26.7308C27.5435 25.9181 28 24.8159 28 23.6667V8.33333C28 7.18406 27.5435 6.08186 26.7308 5.2692C25.9181 4.45655 24.8159 4 23.6667 4H8.33333ZM6 8.33333C6 7.04533 7.04533 6 8.33333 6H23.6667C24.9547 6 26 7.04533 26 8.33333V23.6667C26 24.2855 25.7542 24.879 25.3166 25.3166C24.879 25.7542 24.2855 26 23.6667 26H8.33333C7.71449 26 7.121 25.7542 6.68342 25.3166C6.24583 24.879 6 24.2855 6 23.6667V8.33333Z" fill="#6366F0"/>
</svg>
