<svg width="32" height="32" viewBox="0 0 32 32" fill="none" xmlns="http://www.w3.org/2000/svg">
<path d="M25.2374 13.3333V18.6666M18.3094 25.3333L20.6187 24L22.928 22.6666M13.6907 25.3333L11.3807 24L9.07136 22.6666M6.7627 13.3333V18.6666M9.07136 9.33329L11.3814 7.99996L13.6907 6.66663M18.3094 6.66663L20.6187 7.99996L22.928 9.33329" stroke="#6366F0" stroke-width="2" stroke-linecap="round" stroke-linejoin="round"/>
<path d="M16 29.3333C16.7072 29.3333 17.3855 29.0523 17.8856 28.5522C18.3857 28.0521 18.6667 27.3739 18.6667 26.6666C18.6667 25.9594 18.3857 25.2811 17.8856 24.781C17.3855 24.2809 16.7072 24 16 24C15.2928 24 14.6145 24.2809 14.1144 24.781C13.6143 25.2811 13.3333 25.9594 13.3333 26.6666C13.3333 27.3739 13.6143 28.0521 14.1144 28.5522C14.6145 29.0523 15.2928 29.3333 16 29.3333ZM16 7.99996C16.7072 7.99996 17.3855 7.71901 17.8856 7.21891C18.3857 6.71881 18.6667 6.04054 18.6667 5.33329C18.6667 4.62605 18.3857 3.94777 17.8856 3.44767C17.3855 2.94758 16.7072 2.66663 16 2.66663C15.2928 2.66663 14.6145 2.94758 14.1144 3.44767C13.6143 3.94777 13.3333 4.62605 13.3333 5.33329C13.3333 6.04054 13.6143 6.71881 14.1144 7.21891C14.6145 7.71901 15.2928 7.99996 16 7.99996ZM16 18.6666C16.7072 18.6666 17.3855 18.3857 17.8856 17.8856C18.3857 17.3855 18.6667 16.7072 18.6667 16C18.6667 15.2927 18.3857 14.6144 17.8856 14.1143C17.3855 13.6142 16.7072 13.3333 16 13.3333C15.2928 13.3333 14.6145 13.6142 14.1144 14.1143C13.6143 14.6144 13.3333 15.2927 13.3333 16C13.3333 16.7072 13.6143 17.3855 14.1144 17.8856C14.6145 18.3857 15.2928 18.6666 16 18.6666ZM25.3333 13.3333C26.0406 13.3333 26.7189 13.0523 27.219 12.5522C27.719 12.0521 28 11.3739 28 10.6666C28 9.95938 27.719 9.2811 27.219 8.78101C26.7189 8.28091 26.0406 7.99996 25.3333 7.99996C24.6261 7.99996 23.9478 8.28091 23.4477 8.78101C22.9476 9.2811 22.6667 9.95938 22.6667 10.6666C22.6667 11.3739 22.9476 12.0521 23.4477 12.5522C23.9478 13.0523 24.6261 13.3333 25.3333 13.3333ZM25.3333 24C26.0406 24 26.7189 23.719 27.219 23.2189C27.719 22.7188 28 22.0405 28 21.3333C28 20.626 27.719 19.9478 27.219 19.4477C26.7189 18.9476 26.0406 18.6666 25.3333 18.6666C24.6261 18.6666 23.9478 18.9476 23.4477 19.4477C22.9476 19.9478 22.6667 20.626 22.6667 21.3333C22.6667 22.0405 22.9476 22.7188 23.4477 23.2189C23.9478 23.719 24.6261 24 25.3333 24ZM6.66667 13.3333C7.37391 13.3333 8.05219 13.0523 8.55229 12.5522C9.05238 12.0521 9.33333 11.3739 9.33333 10.6666C9.33333 9.95938 9.05238 9.2811 8.55229 8.78101C8.05219 8.28091 7.37391 7.99996 6.66667 7.99996C5.95942 7.99996 5.28115 8.28091 4.78105 8.78101C4.28095 9.2811 4 9.95938 4 10.6666C4 11.3739 4.28095 12.0521 4.78105 12.5522C5.28115 13.0523 5.95942 13.3333 6.66667 13.3333ZM6.66667 24C7.37391 24 8.05219 23.719 8.55229 23.2189C9.05238 22.7188 9.33333 22.0405 9.33333 21.3333C9.33333 20.626 9.05238 19.9478 8.55229 19.4477C8.05219 18.9476 7.37391 18.6666 6.66667 18.6666C5.95942 18.6666 5.28115 18.9476 4.78105 19.4477C4.28095 19.9478 4 20.626 4 21.3333C4 22.0405 4.28095 22.7188 4.78105 23.2189C5.28115 23.719 5.95942 24 6.66667 24Z" stroke="#6366F0" stroke-width="2" stroke-linecap="round" stroke-linejoin="round"/>
</svg>
