<svg width="32" height="32" viewBox="0 0 32 32" fill="none" xmlns="http://www.w3.org/2000/svg">
<path d="M5.33333 14.6667H13.3333C13.687 14.6667 14.0261 14.5262 14.2761 14.2761C14.5262 14.0261 14.6667 13.687 14.6667 13.3333V5.33333C14.6667 4.97971 14.5262 4.64057 14.2761 4.39052C14.0261 4.14048 13.687 4 13.3333 4H5.33333C4.97971 4 4.64057 4.14048 4.39052 4.39052C4.14048 4.64057 4 4.97971 4 5.33333V13.3333C4 13.687 4.14048 14.0261 4.39052 14.2761C4.64057 14.5262 4.97971 14.6667 5.33333 14.6667ZM6.66667 6.66667H12V12H6.66667V6.66667ZM26.6667 4H18.6667C18.313 4 17.9739 4.14048 17.7239 4.39052C17.4738 4.64057 17.3333 4.97971 17.3333 5.33333V13.3333C17.3333 13.687 17.4738 14.0261 17.7239 14.2761C17.9739 14.5262 18.313 14.6667 18.6667 14.6667H26.6667C27.0203 14.6667 27.3594 14.5262 27.6095 14.2761C27.8595 14.0261 28 13.687 28 13.3333V5.33333C28 4.97971 27.8595 4.64057 27.6095 4.39052C27.3594 4.14048 27.0203 4 26.6667 4ZM25.3333 12H20V6.66667H25.3333V12ZM13.3333 28C13.687 28 14.0261 27.8595 14.2761 27.6095C14.5262 27.3594 14.6667 27.0203 14.6667 26.6667V18.6667C14.6667 18.313 14.5262 17.9739 14.2761 17.7239C14.0261 17.4738 13.687 17.3333 13.3333 17.3333H5.33333C4.97971 17.3333 4.64057 17.4738 4.39052 17.7239C4.14048 17.9739 4 18.313 4 18.6667V26.6667C4 27.0203 4.14048 27.3594 4.39052 27.6095C4.64057 27.8595 4.97971 28 5.33333 28H13.3333ZM6.66667 20H12V25.3333H6.66667V20ZM24 18.6667H21.3333V21.3333H18.6667V24H21.3333V26.6667H24V24H26.6667V21.3333H24V18.6667Z" fill="#6366F0"/>
</svg>
