<svg width="38" height="38" viewBox="0 0 38 38" fill="none" xmlns="http://www.w3.org/2000/svg">
<g filter="url(#filter0_b_648_7139)">
<circle cx="19" cy="19" r="19" fill="#333936"/>
</g>
<path d="M28.6372 12.7758C27.933 13.0769 27.1828 13.2765 26.4006 13.3735C27.2053 12.905 27.8194 12.1688 28.1082 11.2815C27.3579 11.7177 26.5296 12.0258 25.6468 12.1977C24.9344 11.4581 23.919 11 22.8114 11C20.6624 11 18.9323 12.7008 18.9323 14.7858C18.9323 15.0858 18.9583 15.3742 19.0222 15.6488C15.7951 15.4954 12.9397 13.9873 11.0214 11.69C10.6865 12.2565 10.4901 12.905 10.4901 13.6031C10.4901 14.9138 11.1823 16.0758 12.2143 16.7485C11.5906 16.7369 10.9788 16.5604 10.4605 16.2823C10.4605 16.2938 10.4605 16.3088 10.4605 16.3238C10.4605 18.1631 11.806 19.6908 13.5704 20.0427C13.2544 20.1269 12.9101 20.1673 12.5527 20.1673C12.3042 20.1673 12.0533 20.1535 11.8178 20.1027C12.3208 21.6015 13.7479 22.7035 15.4449 22.7392C14.1242 23.7465 12.4474 24.3535 10.6321 24.3535C10.3137 24.3535 10.0084 24.3396 9.70312 24.3015C11.4226 25.3827 13.4603 26 15.6579 26C22.8007 26 26.7059 20.2308 26.7059 15.23C26.7059 15.0627 26.7 14.9012 26.6917 14.7408C27.4621 14.2077 28.1094 13.5419 28.6372 12.7758Z" fill="white"/>
<defs>
<filter id="filter0_b_648_7139" x="-10" y="-10" width="58" height="58" filterUnits="userSpaceOnUse" color-interpolation-filters="sRGB">
<feFlood flood-opacity="0" result="BackgroundImageFix"/>
<feGaussianBlur in="BackgroundImageFix" stdDeviation="5"/>
<feComposite in2="SourceAlpha" operator="in" result="effect1_backgroundBlur_648_7139"/>
<feBlend mode="normal" in="SourceGraphic" in2="effect1_backgroundBlur_648_7139" result="shape"/>
</filter>
</defs>
</svg>
