<svg width="41" height="40" viewBox="0 0 41 40" fill="none" xmlns="http://www.w3.org/2000/svg">
<path d="M8.00033 27.5001C5.50033 29.6001 4.66699 35.8334 4.66699 35.8334C4.66699 35.8334 10.9003 35.0001 13.0003 32.5001C14.1837 31.1001 14.167 28.9501 12.8503 27.6501C12.2025 27.0318 11.3491 26.6745 10.454 26.6468C9.55892 26.6191 8.68512 26.923 8.00033 27.5001ZM20.5003 25.0001L15.5003 20.0001C16.3872 17.6991 17.504 15.4935 18.8337 13.4168C20.7756 10.3117 23.4797 7.75517 26.6887 5.99024C29.8976 4.22531 33.5048 3.31071 37.167 3.33342C37.167 7.86675 35.867 15.8334 27.167 21.6668C25.0618 22.998 22.8284 24.1147 20.5003 25.0001Z" stroke="#E4E6EA" stroke-width="4" stroke-linecap="round" stroke-linejoin="round"/>
<path d="M15.5003 19.9999H7.16699C7.16699 19.9999 8.08366 14.9499 10.5003 13.3332C13.2003 11.5332 18.8337 13.3332 18.8337 13.3332M20.5003 24.9999V33.3332C20.5003 33.3332 25.5503 32.4165 27.167 29.9999C28.967 27.2999 27.167 21.6665 27.167 21.6665" stroke="#E4E6EA" stroke-width="4" stroke-linecap="round" stroke-linejoin="round"/>
</svg>
