<svg width="40" height="40" viewBox="0 0 40 40" fill="none" xmlns="http://www.w3.org/2000/svg">
<path d="M7.49984 27.5001C4.99984 29.6001 4.1665 35.8334 4.1665 35.8334C4.1665 35.8334 10.3998 35.0001 12.4998 32.5001C13.6832 31.1001 13.6665 28.9501 12.3498 27.6501C11.702 27.0318 10.8487 26.6745 9.95355 26.6468C9.05844 26.6191 8.18463 26.923 7.49984 27.5001ZM19.9998 25.0001L14.9998 20.0001C15.8867 17.6991 17.0035 15.4935 18.3332 13.4168C20.2751 10.3117 22.9792 7.75517 26.1882 5.99024C29.3971 4.22531 33.0043 3.31071 36.6665 3.33342C36.6665 7.86675 35.3665 15.8334 26.6665 21.6668C24.5613 22.998 22.3279 24.1147 19.9998 25.0001Z" stroke="#6366F0" stroke-width="4" stroke-linecap="round" stroke-linejoin="round"/>
<path d="M14.9998 20.0001H6.6665C6.6665 20.0001 7.58317 14.9501 9.99984 13.3334C12.6998 11.5334 18.3332 13.3334 18.3332 13.3334M19.9998 25.0001V33.3334C19.9998 33.3334 25.0498 32.4168 26.6665 30.0001C28.4665 27.3001 26.6665 21.6668 26.6665 21.6668" stroke="#6366F0" stroke-width="4" stroke-linecap="round" stroke-linejoin="round"/>
</svg>
